<svg id="Capa_1" enable-background="new 0 0 512 512" height="512" viewBox="0 0 512 512" width="512" xmlns="http://www.w3.org/2000/svg" xmlns:xlink="http://www.w3.org/1999/xlink"><linearGradient id="SVGID_1_" gradientUnits="userSpaceOnUse" x1="256" x2="256" y1="512" y2="0"><stop offset="0" stop-color="#a93aff"/><stop offset="1" stop-color="#ff81ff"/></linearGradient><g><g><path d="m472.708 423.584c-31.895-15.948-51.708-48.007-51.708-83.666v-144.918c0-85.924-66.023-156.706-150-164.311v-15.689c0-8.284-6.716-15-15-15s-15 6.716-15 15v15.689c-83.977 7.604-150 78.386-150 164.311v144.918c0 35.66-19.813 67.719-51.708 83.666-14.107 7.053-9.061 28.416 6.708 28.416h165v15c0 24.813 20.187 45 45 45s45-20.187 45-45v-15h165c15.77 0 20.814-21.364 6.708-28.416zm-201.708 43.416c0 8.271-6.729 15-15 15s-15-6.729-15-15v-15h30zm-181.207-45c19.985-22.485 31.207-51.629 31.207-82.082v-144.918c0-74.439 60.561-135 135-135s135 60.561 135 135v144.918c0 30.571 11.301 59.681 31.207 82.082z" fill="url(#SVGID_1_)"/></g></g></svg>